<?xml version="1.0" standalone="no"?>
<!DOCTYPE svg PUBLIC "-//W3C//DTD SVG 20010904//EN"
 "http://www.w3.org/TR/2001/REC-SVG-20010904/DTD/svg10.dtd">
<svg version="1.0" xmlns="http://www.w3.org/2000/svg"
 width="700.000000pt" height="700.000000pt" viewBox="0 0 700.000000 700.000000"
 preserveAspectRatio="xMidYMid meet">
<metadata>
Created by potrace 1.11, written by Peter Selinger 2001-2013
</metadata>
<g transform="translate(0.000000,700.000000) scale(0.100000,-0.100000)"
fill="#000000" stroke="none">
<path d="M5100 6992 c-129 -8 -343 -55 -471 -103 -134 -52 -333 -157 -413
-220 -137 -106 -221 -184 -306 -284 -123 -146 -242 -343 -305 -510 -33 -87
-82 -266 -89 -325 -3 -25 -10 -76 -14 -115 -5 -38 -9 -486 -9 -994 0 -901 0
-925 -19 -931 -10 -3 -433 -6 -939 -5 -987 1 -1026 0 -1219 -50 -226 -58 -376
-131 -643 -313 -60 -40 -259 -245 -322 -331 -185 -251 -294 -520 -337 -831 -3
-25 -7 -112 -8 -193 -2 -134 2 -198 20 -307 3 -19 7 -47 9 -61 2 -14 11 -53
19 -85 163 -629 661 -1119 1291 -1271 318 -77 689 -56 992 56 540 199 941 634
1097 1188 14 50 28 109 31 130 3 21 7 47 10 58 15 73 18 273 18 1093 l0 923
956 -1 c526 0 965 1 976 3 11 3 45 8 75 11 136 16 358 86 508 160 295 147 550
381 724 666 84 139 183 377 203 492 3 17 8 35 10 38 3 4 9 41 15 81 6 41 13
88 16 104 8 43 7 322 0 375 -19 122 -26 160 -45 240 -7 25 -14 53 -16 63 -9
40 -71 196 -107 269 -61 125 -178 304 -248 379 -8 9 -36 38 -61 65 -213 228
-509 403 -817 484 -42 12 -93 23 -112 26 -19 3 -62 10 -94 15 -58 10 -285 17
-376 11z"/>
<path d="M1290 6958 c-66 -7 -105 -13 -200 -33 -51 -11 -157 -48 -220 -78 -64
-30 -200 -106 -210 -117 -3 -3 -28 -22 -55 -42 -28 -20 -91 -78 -141 -130
-282 -292 -411 -684 -359 -1091 28 -213 119 -436 256 -622 48 -65 174 -190
254 -252 160 -123 394 -225 570 -249 28 -3 54 -8 58 -11 9 -5 1479 -5 1484 0
2 3 3 1292 1 1422 0 32 -26 175 -42 236 -28 107 -75 216 -144 334 -72 126
-221 288 -353 385 -88 64 -263 155 -364 188 -156 52 -372 76 -535 60z"/>
<path d="M4280 2455 c0 -159 -1 -479 -1 -710 0 -433 1 -468 27 -595 54 -262
209 -525 420 -711 178 -157 430 -277 659 -314 82 -14 339 -13 417 1 447 78
809 354 992 755 113 249 143 476 101 779 -21 155 -133 415 -237 552 -219 287
-534 475 -878 524 -30 4 -380 8 -777 9 l-723 0 0 -290z"/>
</g>
</svg>
