<?xml version="1.0" encoding="utf-8"?>
<svg version="1.1" id="Layer_1"
xmlns="http://www.w3.org/2000/svg"
xmlns:xlink="http://www.w3.org/1999/xlink"
width="137px" height="137px"
xml:space="preserve">
<g id="PathID_1" transform="matrix(0.56346, 0, 0, 0.56346, -17.45, -59.55)" opacity="1">
<path style="fill:#1FA2DD;fill-opacity:1" d="M95.85 227.05L152.3 227.05L152.3 283.55L152.3 284.5L152.35 285.5L152.35 286.55L152.4 287.6Q152.4 300.15 147.6 311.2Q142.85 322.25 134.6 330.5Q126.35 338.75 115.3 343.5Q104.25 348.3 91.7 348.3Q79.1 348.3 68.05 343.5Q57 338.75 48.75 330.5Q40.5 322.25 35.75 311.2Q31 300.15 31 287.6Q31 275 35.75 263.95Q40.5 252.9 48.75 244.65Q57 236.4 68.05 231.65Q79.1 226.9 91.7 226.9L92.75 226.9L93.8 226.95L94.8 227L95.85 227.05" />
</g>
<g id="PathID_2" transform="matrix(0.56346, 0, 0, 0.56346, -17.45, -59.55)" opacity="1">
</g>
<g id="PathID_3" transform="matrix(0.56346, 0, 0, 0.56346, -17.45, -59.55)" opacity="1">
<path style="fill:#F2AB44;fill-opacity:1" d="M208.75 226.95L152.3 226.95L152.3 170.5L152.25 169.5L152.2 168.5L152.2 167.45L152.2 166.45Q152.2 153.85 156.95 142.8Q161.7 131.75 169.95 123.5Q178.2 115.25 189.25 110.5Q200.3 105.75 212.9 105.75Q225.45 105.75 236.5 110.5Q247.55 115.25 255.8 123.5Q264.05 131.75 268.8 142.8Q273.6 153.85 273.6 166.45Q273.6 179 268.8 190.05Q264.05 201.1 255.8 209.35Q247.55 217.6 236.5 222.35Q225.45 227.15 212.9 227.15L211.85 227.1L210.8 227.05L209.75 227L208.75 226.95" />
</g>
<g id="PathID_4" transform="matrix(0.56346, 0, 0, 0.56346, -17.45, -59.55)" opacity="1">
</g>
<g id="PathID_5" transform="matrix(0.56346, 0, 0, 0.56346, -17.45, -59.55)" opacity="1">
<path style="fill:#DB1983;fill-opacity:1" d="M82.35 198.55L81.6 198.55L80.8 198.6L80.05 198.65Q70.5 198.65 62.15 195.05Q53.8 191.45 47.6 185.2Q41.35 179 37.75 170.65Q34.2 162.3 34.2 152.8Q34.2 143.25 37.75 134.9Q41.35 126.55 47.6 120.35Q53.8 114.1 62.15 110.5Q70.5 106.95 80.05 106.95Q89.55 106.95 97.9 110.55Q106.25 114.15 112.45 120.35Q118.7 126.6 122.3 134.95Q125.9 143.3 125.9 152.8L125.85 153.55L125.85 154.3L125.8 155.05L125.8 155.85L125.8 198.5L83.15 198.5L82.35 198.55" />
</g>
<g id="PathID_6" transform="matrix(0.56346, 0, 0, 0.56346, -17.45, -59.55)" opacity="1">
</g>
<g id="PathID_7" transform="matrix(0.56346, 0, 0, 0.56346, -17.45, -59.55)" opacity="1">
<path style="fill:#39AC4A;fill-opacity:1" d="M223 253.4L223.8 253.4L224.55 253.35L225.35 253.35Q234.85 253.35 243.2 256.95Q251.55 260.55 257.75 266.75Q264 273 267.6 281.35Q271.2 289.7 271.2 299.2Q271.2 308.7 267.55 317.05Q263.95 325.4 257.75 331.6Q251.5 337.85 243.15 341.45Q234.8 345.05 225.35 345.05Q215.8 345.05 207.45 341.4Q199.1 337.8 192.9 331.6Q186.65 325.35 183.05 317Q179.5 308.65 179.5 299.2L179.5 298.4L179.5 297.65L179.55 296.9L179.6 296.15L179.6 253.5L222.25 253.5L223 253.4" />
</g>
<g id="PathID_8" transform="matrix(0.56346, 0, 0, 0.56346, -17.45, -59.55)" opacity="1">
</g>
</svg>
