<?xml version="1.0" encoding="utf-8"?>
<svg version="1.1" id="Layer_1"
xmlns="http://www.w3.org/2000/svg"
xmlns:xlink="http://www.w3.org/1999/xlink"
width="127px" height="54px"
xml:space="preserve">
<g id="PathID_23" transform="matrix(0.500941, 0, 0, 0.500941, 55.9, 24.1)" opacity="1">
<path style="fill:#FFFFFF;fill-opacity:1" d="M27.85 0Q27.3 -1.85 26.6 -3.8L25.25 -7.65L11.4 -7.65L10.05 -3.8Q9.35 -1.85 8.8 0L0.5 0L4.3 -10.6Q6.1 -15.45 7.8 -19.75Q9.5 -24.05 11.15 -27.9Q12.85 -31.8 14.65 -35.45L22.25 -35.45Q24 -31.8 25.7 -27.9Q27.4 -24.05 29.1 -19.75Q30.8 -15.45 32.6 -10.6L36.4 0L27.85 0M18.25 -27.45L17.5 -25.35L16.3 -22.25L14.85 -18.4L13.25 -14L23.35 -14L21.75 -18.4L20.3 -22.25L19.1 -25.35L18.25 -27.45" />
</g>
<g id="PathID_24" transform="matrix(0.500941, 0, 0, 0.500941, 55.9, 24.1)" opacity="1">
</g>
<g id="PathID_25" transform="matrix(0.500941, 0, 0, 0.500941, 74.35, 24.1)" opacity="1">
<path style="fill:#FFFFFF;fill-opacity:1" d="M20.85 -13.25Q20.85 -16.8 19.25 -18.9Q17.65 -21.05 14.55 -21.05Q13.5 -21.05 12.65 -20.95Q11.75 -20.9 11.2 -20.75L11.2 -7Q11.9 -6.55 13.05 -6.25Q14.2 -5.95 15.4 -5.95Q20.85 -5.95 20.85 -13.25M28.6 -13.45Q28.6 -10.35 27.85 -7.75Q27.05 -5.2 25.6 -3.35Q24.1 -1.5 21.9 -0.5Q19.7 0.5 16.85 0.5Q15.25 0.5 13.85 0.2Q12.5 -0.1 11.2 -0.65L11.2 9.45L3.55 9.45L3.55 -26L5.95 -26.6L8.7 -27.05Q10.2 -27.3 11.7 -27.4Q13.2 -27.55 14.6 -27.55Q17.9 -27.55 20.5 -26.55Q23.15 -25.55 24.9 -23.7Q26.7 -21.9 27.65 -19.3Q28.6 -16.7 28.6 -13.45" />
</g>
<g id="PathID_26" transform="matrix(0.500941, 0, 0, 0.500941, 74.35, 24.1)" opacity="1">
</g>
<g id="PathID_27" transform="matrix(0.500941, 0, 0, 0.500941, 89.8, 24.1)" opacity="1">
<path style="fill:#FFFFFF;fill-opacity:1" d="M20.85 -13.25Q20.85 -16.8 19.25 -18.9Q17.65 -21.05 14.55 -21.05Q13.5 -21.05 12.65 -20.95Q11.75 -20.9 11.2 -20.75L11.2 -7Q11.9 -6.55 13.05 -6.25Q14.2 -5.95 15.4 -5.95Q20.85 -5.95 20.85 -13.25M28.6 -13.45Q28.6 -10.35 27.85 -7.75Q27.05 -5.2 25.6 -3.35Q24.1 -1.5 21.9 -0.5Q19.7 0.5 16.85 0.5Q15.25 0.5 13.85 0.2Q12.5 -0.1 11.2 -0.65L11.2 9.45L3.55 9.45L3.55 -26L5.95 -26.6L8.7 -27.05Q10.2 -27.3 11.7 -27.4Q13.2 -27.55 14.6 -27.55Q17.9 -27.55 20.5 -26.55Q23.15 -25.55 24.9 -23.7Q26.7 -21.9 27.65 -19.3Q28.6 -16.7 28.6 -13.45" />
</g>
<g id="PathID_28" transform="matrix(0.500941, 0, 0, 0.500941, 89.8, 24.1)" opacity="1">
</g>
<g id="PathID_29" transform="matrix(0.217015, 0, 0, 0.217015, -6.7, -22.7)" opacity="1">
<path style="fill:#1FA2DD;fill-opacity:1" d="M95.85 227.05L152.3 227.05L152.3 283.55L152.3 284.5L152.35 285.5L152.35 286.55L152.4 287.6Q152.4 300.15 147.6 311.2Q142.85 322.25 134.6 330.5Q126.35 338.75 115.3 343.5Q104.25 348.3 91.7 348.3Q79.1 348.3 68.05 343.5Q57 338.75 48.75 330.5Q40.5 322.25 35.75 311.2Q31 300.15 31 287.6Q31 275 35.75 263.95Q40.5 252.9 48.75 244.65Q57 236.4 68.05 231.65Q79.1 226.9 91.7 226.9L92.75 226.9L93.8 226.95L94.8 227L95.85 227.05" />
</g>
<g id="PathID_30" transform="matrix(0.217015, 0, 0, 0.217015, -6.7, -22.7)" opacity="1">
</g>
<g id="PathID_31" transform="matrix(0.217015, 0, 0, 0.217015, -6.7, -22.7)" opacity="1">
<path style="fill:#F2AB44;fill-opacity:1" d="M208.75 226.95L152.3 226.95L152.3 170.5L152.25 169.5L152.2 168.5L152.2 167.45L152.2 166.45Q152.2 153.85 156.95 142.8Q161.7 131.75 169.95 123.5Q178.2 115.25 189.25 110.5Q200.3 105.75 212.9 105.75Q225.45 105.75 236.5 110.5Q247.55 115.25 255.8 123.5Q264.05 131.75 268.8 142.8Q273.6 153.85 273.6 166.45Q273.6 179 268.8 190.05Q264.05 201.1 255.8 209.35Q247.55 217.6 236.5 222.35Q225.45 227.15 212.9 227.15L211.85 227.1L210.8 227.05L209.75 227L208.75 226.95" />
</g>
<g id="PathID_32" transform="matrix(0.217015, 0, 0, 0.217015, -6.7, -22.7)" opacity="1">
</g>
<g id="PathID_33" transform="matrix(0.217015, 0, 0, 0.217015, -6.7, -22.7)" opacity="1">
<path style="fill:#DB1983;fill-opacity:1" d="M82.35 198.55L81.6 198.55L80.8 198.6L80.05 198.65Q70.5 198.65 62.15 195.05Q53.8 191.45 47.6 185.2Q41.35 179 37.75 170.65Q34.2 162.3 34.2 152.8Q34.2 143.25 37.75 134.9Q41.35 126.55 47.6 120.35Q53.8 114.1 62.15 110.5Q70.5 106.95 80.05 106.95Q89.55 106.95 97.9 110.55Q106.25 114.15 112.45 120.35Q118.7 126.6 122.3 134.95Q125.9 143.3 125.9 152.8L125.85 153.55L125.85 154.3L125.8 155.05L125.8 155.85L125.8 198.5L83.15 198.5L82.35 198.55" />
</g>
<g id="PathID_34" transform="matrix(0.217015, 0, 0, 0.217015, -6.7, -22.7)" opacity="1">
</g>
<g id="PathID_35" transform="matrix(0.217015, 0, 0, 0.217015, -6.7, -22.7)" opacity="1">
<path style="fill:#39AC4A;fill-opacity:1" d="M223 253.4L223.8 253.4L224.55 253.35L225.35 253.35Q234.85 253.35 243.2 256.95Q251.55 260.55 257.75 266.75Q264 273 267.6 281.35Q271.2 289.7 271.2 299.2Q271.2 308.7 267.55 317.05Q263.95 325.4 257.75 331.6Q251.5 337.85 243.15 341.45Q234.8 345.05 225.35 345.05Q215.8 345.05 207.45 341.4Q199.1 337.8 192.9 331.6Q186.65 325.35 183.05 317Q179.5 308.65 179.5 299.2L179.5 298.4L179.5 297.65L179.55 296.9L179.6 296.15L179.6 253.5L222.25 253.5L223 253.4" />
</g>
<g id="PathID_36" transform="matrix(0.217015, 0, 0, 0.217015, -6.7, -22.7)" opacity="1">
</g>
<g id="PathID_37" transform="matrix(0.500941, 0, 0, 0.500941, 55.9, 48.2)" opacity="1">
<path style="fill:#FFFFFF;fill-opacity:1" d="M12.05 -6.5L13.4 -6.4L15.15 -6.4Q21.15 -6.4 24.05 -9.4Q26.9 -12.45 26.9 -17.75Q26.9 -23.35 24.15 -26.2Q21.4 -29.05 15.4 -29.05L13.7 -29.05L12.05 -28.9L12.05 -6.5M35.15 -17.75Q35.15 -13.15 33.75 -9.7Q32.3 -6.3 29.65 -4.05Q27 -1.8 23.25 -0.65Q19.45 0.45 14.75 0.45Q12.6 0.45 9.7 0.25Q6.85 0.1 4.1 -0.45L4.1 -35Q6.85 -35.5 9.85 -35.7Q12.85 -35.9 15 -35.9Q19.55 -35.9 23.25 -34.85Q26.95 -33.85 29.65 -31.65Q32.3 -29.45 33.75 -26Q35.15 -22.55 35.15 -17.75" />
</g>
<g id="PathID_38" transform="matrix(0.500941, 0, 0, 0.500941, 55.9, 48.2)" opacity="1">
</g>
<g id="PathID_39" transform="matrix(0.500941, 0, 0, 0.500941, 74.8, 48.2)" opacity="1">
<path style="fill:#FFFFFF;fill-opacity:1" d="M2.3 -13.25Q2.3 -16.85 3.4 -19.5Q4.5 -22.2 6.3 -24Q8.1 -25.8 10.4 -26.7Q12.75 -27.65 15.2 -27.65Q20.95 -27.65 24.25 -24.15Q27.6 -20.6 27.6 -13.8L27.55 -12.35L27.45 -10.95L10.15 -10.95Q10.4 -8.6 12.35 -7.2Q14.25 -5.8 17.55 -5.8Q19.65 -5.8 21.65 -6.2Q23.7 -6.6 24.95 -7.15L26 -0.95Q25.4 -0.65 24.35 -0.35Q23.35 -0.05 22.1 0.15Q20.85 0.4 19.4 0.55Q17.95 0.7 16.55 0.7Q12.9 0.7 10.2 -0.35Q7.5 -1.4 5.75 -3.3Q4 -5.15 3.15 -7.7Q2.3 -10.3 2.3 -13.25M20.2 -16.15Q20.15 -17.15 19.9 -18.05Q19.6 -19 19 -19.7Q18.4 -20.4 17.5 -20.9Q16.65 -21.35 15.3 -21.35Q14 -21.35 13.1 -20.9Q12.15 -20.45 11.55 -19.75Q10.95 -19.05 10.6 -18.1Q10.3 -17.15 10.15 -16.15L20.2 -16.15" />
</g>
<g id="PathID_40" transform="matrix(0.500941, 0, 0, 0.500941, 74.8, 48.2)" opacity="1">
</g>
<g id="PathID_41" transform="matrix(0.500941, 0, 0, 0.500941, 89.75, 48.2)" opacity="1">
<path style="fill:#FFFFFF;fill-opacity:1" d="M18.35 -14.25Q18.35 -17.95 17.4 -19.5Q16.45 -21.05 14.15 -21.05L12.7 -20.95Q11.9 -20.9 11.2 -20.75L11.2 0L3.55 0L3.55 -26L5.85 -26.55L8.6 -27.05Q10.05 -27.3 11.6 -27.4Q13.15 -27.55 14.65 -27.55Q17.55 -27.55 19.35 -26.8Q21.2 -26.05 22.35 -25Q24 -26.2 26.15 -26.85Q28.25 -27.55 30.05 -27.55Q33.25 -27.55 35.35 -26.65Q37.4 -25.75 38.65 -24.1Q39.85 -22.45 40.35 -20.2Q40.8 -17.95 40.8 -15.2L40.8 0L33.15 0L33.15 -14.25Q33.15 -17.95 32.2 -19.5Q31.25 -21.05 28.95 -21.05Q28.35 -21.05 27.25 -20.7Q26.15 -20.4 25.45 -19.95Q25.8 -18.8 25.9 -17.45Q26 -16.15 26 -14.7L26 0L18.35 0L18.35 -14.25" />
</g>
<g id="PathID_42" transform="matrix(0.500941, 0, 0, 0.500941, 89.75, 48.2)" opacity="1">
</g>
<g id="PathID_43" transform="matrix(0.500941, 0, 0, 0.500941, 111.85, 48.2)" opacity="1">
<path style="fill:#FFFFFF;fill-opacity:1" d="M28.75 -13.5Q28.75 -10.35 27.85 -7.7Q26.9 -5.05 25.2 -3.2Q23.45 -1.3 21 -0.3Q18.55 0.7 15.55 0.7Q12.6 0.7 10.15 -0.3Q7.7 -1.3 6 -3.2Q4.25 -5.05 3.25 -7.7Q2.3 -10.35 2.3 -13.5Q2.3 -16.7 3.3 -19.3Q4.3 -21.9 6.05 -23.75Q7.8 -25.6 10.25 -26.6Q12.7 -27.65 15.55 -27.65Q18.45 -27.65 20.9 -26.6Q23.35 -25.6 25.1 -23.75Q26.8 -21.9 27.8 -19.3Q28.75 -16.7 28.75 -13.5M21 -13.5Q21 -17.05 19.55 -19.05Q18.15 -21.1 15.55 -21.1Q12.95 -21.1 11.5 -19.05Q10.05 -17.05 10.05 -13.5Q10.05 -9.95 11.5 -7.9Q12.95 -5.8 15.55 -5.8Q18.15 -5.8 19.55 -7.9Q21 -9.95 21 -13.5" />
</g>
<g id="PathID_44" transform="matrix(0.500941, 0, 0, 0.500941, 111.85, 48.2)" opacity="1">
</g>
</svg>
